<svg width="34" height="34" viewBox="0 0 34 34" fill="none" xmlns="http://www.w3.org/2000/svg">
<rect x="0.0355225" y="0.368896" width="33.0638" height="33.0638" rx="7.34752" fill="#F4ECFB"/>
<g clip-path="url(#clip0_52_3223)">
<path d="M17.945 13.4566V8.95163C18.5822 9.19226 19.161 9.56559 19.643 10.0469L22.0429 12.4481C22.5247 12.9295 22.8983 13.5082 23.1388 14.1454H18.6339C18.4512 14.1454 18.276 14.0728 18.1468 13.9437C18.0176 13.8145 17.945 13.6393 17.945 13.4566ZM23.4557 15.8571V21.7225C23.4546 22.6356 23.0914 23.511 22.4457 24.1567C21.8 24.8024 20.9246 25.1656 20.0115 25.1667H13.1232C12.2101 25.1656 11.3347 24.8024 10.6891 24.1567C10.0434 23.511 9.68017 22.6356 9.67908 21.7225V12.0789C9.68017 11.1658 10.0434 10.2904 10.6891 9.64474C11.3347 8.99908 12.2101 8.63586 13.1232 8.63477H16.2333C16.3456 8.63477 16.4565 8.64372 16.5674 8.6513V13.4566C16.5674 14.0046 16.7851 14.5303 17.1726 14.9178C17.5602 15.3053 18.0858 15.5231 18.6339 15.5231H23.4391C23.4467 15.634 23.4557 15.7449 23.4557 15.8571ZM19.8214 18.4926C19.6955 18.3604 19.5222 18.2837 19.3397 18.2791C19.1572 18.2746 18.9804 18.3427 18.8481 18.4685L16.3683 20.8319C16.302 20.8985 16.2228 20.9509 16.1356 20.9858C16.0483 21.0207 15.9548 21.0374 15.8609 21.0348C15.7669 21.0322 15.6745 21.0104 15.5893 20.9708C15.5041 20.9312 15.4279 20.8745 15.3654 20.8043L14.2708 19.8303C14.2032 19.7701 14.1245 19.7237 14.039 19.6939C13.9535 19.6641 13.863 19.6515 13.7726 19.6566C13.5901 19.6671 13.4192 19.7496 13.2975 19.8861C13.2373 19.9537 13.1909 20.0325 13.1611 20.1179C13.1313 20.2034 13.1186 20.2939 13.1238 20.3843C13.1343 20.5669 13.2168 20.7378 13.3533 20.8594L14.4168 21.8059C14.8024 22.1915 15.3247 22.4091 15.8699 22.4113C16.4152 22.4135 16.9392 22.2001 17.3278 21.8176L19.7973 19.4659C19.9295 19.34 20.0063 19.1668 20.0108 18.9843C20.0153 18.8018 19.9472 18.6249 19.8214 18.4926Z" fill="#883DCF"/>
</g>
<defs>
<clipPath id="clip0_52_3223">
<rect width="16.5319" height="16.5319" fill="white" transform="translate(8.30145 8.63477)"/>
</clipPath>
</defs>
</svg>
