<svg width="34" height="34" viewBox="0 0 34 34" fill="none" xmlns="http://www.w3.org/2000/svg">
<rect x="0.567505" y="0.368896" width="33.0638" height="33.0638" rx="7.34752" fill="#FEECEE"/>
<g clip-path="url(#clip0_52_3259)">
<path d="M24.475 24.2763C24.2063 24.545 23.7696 24.545 23.5009 24.2763L22.5269 23.3023L21.5522 24.2763C21.2877 24.5498 20.8517 24.5574 20.5782 24.2936C20.3048 24.0291 20.2972 23.593 20.561 23.3196C20.5665 23.3141 20.572 23.3079 20.5782 23.3023L21.5522 22.3283L20.5782 21.3536C20.3048 21.0891 20.2972 20.6531 20.561 20.3796C20.8255 20.1062 21.2616 20.0986 21.535 20.3624C21.5405 20.3679 21.5467 20.3734 21.5522 20.3796L22.5269 21.3536L23.5009 20.3796C23.7655 20.1062 24.2015 20.0986 24.475 20.3624C24.7484 20.6269 24.756 21.063 24.4922 21.3364C24.4867 21.3419 24.4812 21.3481 24.475 21.3536L23.5009 22.3283L24.475 23.3023C24.745 23.5703 24.7484 24.0043 24.4805 24.2743C24.4791 24.2757 24.4784 24.277 24.475 24.2763Z" fill="#EB3D4D"/>
<path d="M18.5012 22.4219C18.4984 20.1508 20.3369 18.3075 22.6073 18.304C23.4911 18.3027 24.3521 18.5865 25.0616 19.1134C26.2829 14.7152 23.7074 10.16 19.3099 8.93871C14.9124 7.71742 10.3578 10.2923 9.13654 14.6904C7.91525 19.0886 10.4908 23.6445 14.8883 24.8658C16.3348 25.2674 17.8633 25.2674 19.3099 24.8658C18.785 24.1591 18.5012 23.3022 18.5012 22.4219ZM17.7882 16.9161C17.7882 17.0993 17.7152 17.2742 17.5857 17.4037L15.5158 19.4744C15.2416 19.7389 14.8049 19.7313 14.5404 19.4571C14.2821 19.1899 14.2821 18.7656 14.5404 18.4983L16.4085 16.6302V13.4657C16.4085 13.0848 16.7171 12.7755 17.0987 12.7755C17.4796 12.7755 17.7882 13.0848 17.7882 13.4657V16.9161Z" fill="#EB3D4D"/>
</g>
<defs>
<clipPath id="clip0_52_3259">
<rect width="16.5319" height="16.5319" fill="white" transform="translate(8.8335 8.63477)"/>
</clipPath>
</defs>
</svg>
