<svg width="34" height="34" viewBox="0 0 34 34" fill="none" xmlns="http://www.w3.org/2000/svg">
<rect x="0.546143" y="0.368896" width="33.0638" height="33.0638" rx="7.34752" fill="#FFF0EA"/>
<g clip-path="url(#clip0_52_3235)">
<path d="M15.7004 24.4774C15.7004 24.6601 15.6279 24.8353 15.4987 24.9645C15.3695 25.0936 15.1943 25.1662 15.0116 25.1662H9.50096C9.31827 25.1662 9.14307 25.0936 9.01389 24.9645C8.88471 24.8353 8.81213 24.6601 8.81213 24.4774C8.81213 24.2947 8.88471 24.1195 9.01389 23.9903C9.14307 23.8611 9.31827 23.7886 9.50096 23.7886H15.0116C15.1943 23.7886 15.3695 23.8611 15.4987 23.9903C15.6279 24.1195 15.7004 24.2947 15.7004 24.4774Z" fill="#F86624"/>
<path d="M9.50096 22.4114H13.6339C13.8166 22.4114 13.9918 22.3388 14.121 22.2096C14.2502 22.0804 14.3228 21.9052 14.3228 21.7225C14.3228 21.5398 14.2502 21.3646 14.121 21.2354C13.9918 21.1063 13.8166 21.0337 13.6339 21.0337H9.50096C9.31827 21.0337 9.14307 21.1063 9.01389 21.2354C8.88471 21.3646 8.81213 21.5398 8.81213 21.7225C8.81213 21.9052 8.88471 22.0804 9.01389 22.2096C9.14307 22.3388 9.31827 22.4114 9.50096 22.4114Z" fill="#F86624"/>
<path d="M9.50096 19.6565H12.2563C12.439 19.6565 12.6142 19.5839 12.7434 19.4547C12.8725 19.3255 12.9451 19.1503 12.9451 18.9676C12.9451 18.785 12.8725 18.6097 12.7434 18.4806C12.6142 18.3514 12.439 18.2788 12.2563 18.2788H9.50096C9.31827 18.2788 9.14307 18.3514 9.01389 18.4806C8.88471 18.6097 8.81213 18.785 8.81213 18.9676C8.81213 19.1503 8.88471 19.3255 9.01389 19.4547C9.14307 19.5839 9.31827 19.6565 9.50096 19.6565Z" fill="#F86624"/>
<path d="M17.0781 8.63477C14.8858 8.63477 12.7833 9.50564 11.2332 11.0558C9.68301 12.606 8.81213 14.7085 8.81213 16.9007C8.81213 16.9427 8.81764 16.9834 8.81833 17.0254C9.0371 16.9452 9.26798 16.9031 9.50096 16.9007H12.2563C12.5944 16.8996 12.9277 16.9817 13.2265 17.1399C13.5254 17.298 13.7808 17.5273 13.97 17.8075C14.1593 18.0878 14.2767 18.4103 14.3117 18.7466C14.3468 19.0829 14.2986 19.4227 14.1712 19.7359C14.4533 19.81 14.7163 19.9433 14.9426 20.1271C15.169 20.3109 15.3536 20.5408 15.484 20.8016C15.6144 21.0624 15.6876 21.3481 15.6988 21.6394C15.71 21.9308 15.6589 22.2212 15.5489 22.4913C15.8244 22.5615 16.082 22.6888 16.3052 22.865C16.5284 23.0411 16.7121 23.2621 16.8445 23.5137C16.9769 23.7653 17.055 24.0418 17.0737 24.3255C17.0925 24.6092 17.0515 24.8936 16.9534 25.1605C16.9954 25.1605 17.0361 25.1667 17.0781 25.1667C19.2704 25.1667 21.3728 24.2958 22.923 22.7456C24.4732 21.1955 25.344 19.093 25.344 16.9007C25.344 14.7085 24.4732 12.606 22.923 11.0558C21.3728 9.50564 19.2704 8.63477 17.0781 8.63477V8.63477ZM19.6316 19.4542C19.5024 19.5834 19.3272 19.6559 19.1446 19.6559C18.9619 19.6559 18.7868 19.5834 18.6576 19.4542L16.5911 17.3877C16.4619 17.2586 16.3893 17.0834 16.3893 16.9007V13.4566C16.3893 13.2739 16.4618 13.0987 16.591 12.9695C16.7202 12.8403 16.8954 12.7677 17.0781 12.7677C17.2608 12.7677 17.436 12.8403 17.5652 12.9695C17.6943 13.0987 17.7669 13.2739 17.7669 13.4566V16.6155L19.6316 18.4802C19.7607 18.6094 19.8333 18.7846 19.8333 18.9672C19.8333 19.1499 19.7607 19.325 19.6316 19.4542Z" fill="#F86624"/>
</g>
<defs>
<clipPath id="clip0_52_3235">
<rect width="16.5319" height="16.5319" fill="white" transform="translate(8.81213 8.63477)"/>
</clipPath>
</defs>
</svg>
