<svg width="34" height="34" viewBox="0 0 34 34" fill="none" xmlns="http://www.w3.org/2000/svg">
<rect x="0.0566406" y="0.368896" width="33.0638" height="33.0638" rx="7.34752" fill="#E9FAF7"/>
<g clip-path="url(#clip0_52_3247)">
<path d="M21.3765 24.4784H21.3538C21.0018 24.4729 20.667 24.3234 20.428 24.0651L19.1068 22.7694C18.8423 22.4959 18.8485 22.0599 19.122 21.7954C19.1227 21.7947 19.1234 21.794 19.1241 21.7933C19.3975 21.5309 19.8315 21.5385 20.0953 21.8099L21.3772 23.0656L23.6786 20.7642C23.9472 20.4956 24.384 20.4956 24.6526 20.7642C24.9212 21.0329 24.9212 21.4696 24.6526 21.7382L22.2961 24.0947C22.0536 24.3406 21.7223 24.4791 21.3765 24.4784Z" fill="#22CAAD"/>
<path d="M17.9903 22.4219C17.9876 20.1508 19.8261 18.3075 22.0964 18.304C22.9802 18.3027 23.8412 18.5865 24.5507 19.1134C25.772 14.7152 23.1965 10.16 18.799 8.93871C14.4015 7.71742 9.84697 10.2923 8.62568 14.6904C7.40438 19.0886 9.97992 23.6445 14.3774 24.8658C15.8239 25.2674 17.3525 25.2674 18.799 24.8658C18.2741 24.1591 17.9903 23.3022 17.9903 22.4219ZM17.2774 16.9161C17.2774 17.0993 17.2044 17.2742 17.0749 17.4037L15.0049 19.4744C14.7308 19.7389 14.2941 19.7313 14.0295 19.4571C13.7712 19.1899 13.7712 18.7656 14.0295 18.4983L15.8977 16.6302V13.4657C15.8977 13.0848 16.2063 12.7755 16.5879 12.7755C16.9688 12.7755 17.2774 13.0848 17.2774 13.4657V16.9161Z" fill="#22CAAD"/>
</g>
<defs>
<clipPath id="clip0_52_3247">
<rect width="16.5319" height="16.5319" fill="white" transform="translate(8.32263 8.63477)"/>
</clipPath>
</defs>
</svg>
