<svg width="158" height="33" viewBox="0 0 158 33" fill="none" xmlns="http://www.w3.org/2000/svg">
<mask id="mask0_1404_74" style="mask-type:luminance" maskUnits="userSpaceOnUse" x="0" y="1" width="32" height="32">
<path d="M31.342 1H0V32.342H31.342V1Z" fill="white"/>
</mask>
<g mask="url(#mask0_1404_74)">
<path d="M3.06813 14.7439C2.94083 14.269 2.94082 13.7689 3.06808 13.2939C3.19534 12.819 3.44539 12.3859 3.7931 12.0382L11.0385 4.79277C11.3862 4.44506 11.8193 4.19501 12.2943 4.06775C12.7692 3.94049 13.2693 3.94051 13.7443 4.06781L20.5242 5.88448C20.5947 4.95565 20.9181 4.06383 21.4593 3.3056L13.2934 1.11777C12.7072 0.960739 12.0901 0.960742 11.504 1.11778C10.9179 1.27483 10.3834 1.58338 9.95431 2.01243L1.01291 10.9538C0.583864 11.3829 0.275315 11.9174 0.118273 12.5035C-0.0387698 13.0896 -0.0387732 13.7067 0.118263 14.2929L2.39025 22.772C3.13297 22.2048 4.01724 21.8525 4.94652 21.7537L3.06813 14.7439Z" fill="#18CDCA"/>
<path d="M26.3336 11.3538L28.2748 18.5979C28.4021 19.073 28.402 19.573 28.2748 20.0479C28.1474 20.5229 27.8973 20.9559 27.5496 21.3036L20.3042 28.5492C19.9565 28.8969 19.5235 29.1469 19.0484 29.2742C18.5736 29.4014 18.0734 29.4014 17.5985 29.2742L10.5887 27.3958C10.4899 28.3252 10.1377 29.2094 9.57043 29.9521L18.0495 32.2241C18.6356 32.3812 19.2528 32.3812 19.8388 32.2241C20.4251 32.067 20.9595 31.7586 21.3886 31.3294L30.33 22.388C30.7591 21.9589 31.0675 21.4245 31.2246 20.8383C31.3817 20.2522 31.3817 19.635 31.2246 19.049L28.867 10.2524C28.1399 10.8458 27.2633 11.227 26.3336 11.3538Z" fill="#18CDCA"/>
<path d="M2.59388 23.9414C2.01964 24.5156 1.62857 25.2473 1.47014 26.0437C1.3117 26.8403 1.39301 27.6659 1.70379 28.4162C2.01455 29.1663 2.54084 29.8076 3.21606 30.2589C3.8913 30.7099 4.68514 30.9509 5.49725 30.9509C6.30933 30.9509 7.1032 30.7099 7.77842 30.2589C8.45366 29.8076 8.97994 29.1663 9.2907 28.4162C9.60148 27.6659 9.68279 26.8403 9.52435 26.0437C9.36592 25.2473 8.97485 24.5156 8.40061 23.9414C7.62999 23.1726 6.58584 22.7407 5.49725 22.7407C4.40865 22.7407 3.3645 23.1726 2.59388 23.9414Z" fill="#4F80E1"/>
<path d="M22.7292 3.38185C22.155 3.95608 21.7638 4.6877 21.6055 5.48419C21.4471 6.28067 21.5283 7.10626 21.8391 7.85655C22.1499 8.60681 22.6762 9.2481 23.3513 9.69927C24.0266 10.1505 24.8205 10.3913 25.6325 10.3913C26.4447 10.3913 27.2385 10.1505 27.9138 9.69927C28.589 9.2481 29.1152 8.60681 29.426 7.85655C29.7368 7.10626 29.8181 6.28067 29.6596 5.48419C29.5013 4.6877 29.1101 3.95608 28.5359 3.38185C27.7654 2.61296 26.7211 2.18115 25.6325 2.18115C24.544 2.18115 23.4997 2.61296 22.7292 3.38185Z" fill="#4F80E1"/>
<path d="M18.0813 27.5549C17.9164 27.5549 17.7524 27.5333 17.593 27.4906L11.1765 25.7712C10.9625 24.6286 10.4082 23.5774 9.58627 22.7555C8.76432 21.9336 7.71313 21.3792 6.57059 21.1653L4.85134 14.7492C4.76611 14.4292 4.76635 14.0924 4.85207 13.7725C4.9378 13.4526 5.10598 13.1608 5.33981 12.9263L11.9257 6.34017C12.16 6.10588 12.4518 5.93741 12.7719 5.85165C13.0919 5.76591 13.4289 5.76592 13.7489 5.8517L19.9856 7.52283C20.233 8.6583 20.8175 9.69257 21.6627 10.4902C22.5078 11.2878 23.5742 11.8116 24.722 11.9929L26.4902 18.5934C26.5754 18.9136 26.5753 19.2504 26.4894 19.5702C26.4037 19.8902 26.2356 20.1819 26.0016 20.4165L19.4157 27.0025C19.2409 27.1781 19.0328 27.3175 18.8038 27.4122C18.5747 27.5071 18.3292 27.5555 18.0813 27.5549Z" fill="#4F80E1"/>
</g>
<path d="M49.6758 8.644V11.13H43.2738V15.068H48.1798V17.51H43.2738V24H40.1938V8.644H49.6758ZM54.9398 7.72V24H51.8598V7.72H54.9398ZM59.5448 10.36C59.0022 10.36 58.5475 10.1913 58.1808 9.854C57.8288 9.502 57.6528 9.06933 57.6528 8.556C57.6528 8.04267 57.8288 7.61733 58.1808 7.28C58.5475 6.928 59.0022 6.752 59.5448 6.752C60.0875 6.752 60.5348 6.928 60.8868 7.28C61.2535 7.61733 61.4368 8.04267 61.4368 8.556C61.4368 9.06933 61.2535 9.502 60.8868 9.854C60.5348 10.1913 60.0875 10.36 59.5448 10.36ZM61.0628 11.812V24H57.9828V11.812H61.0628ZM68.8799 11.614C69.7892 11.614 70.5886 11.7973 71.2779 12.164C71.9672 12.516 72.5099 12.978 72.9059 13.55V11.812H76.0079V24.088C76.0079 25.2173 75.7806 26.222 75.3259 27.102C74.8712 27.9967 74.1892 28.7007 73.2799 29.214C72.3706 29.742 71.2706 30.006 69.9799 30.006C68.2492 30.006 66.8266 29.6027 65.7119 28.796C64.6119 27.9893 63.9886 26.8893 63.8419 25.496H66.8999C67.0612 26.0533 67.4059 26.4933 67.9339 26.816C68.4766 27.1533 69.1292 27.322 69.8919 27.322C70.7866 27.322 71.5126 27.0507 72.0699 26.508C72.6272 25.98 72.9059 25.1733 72.9059 24.088V22.196C72.5099 22.768 71.9599 23.2447 71.2559 23.626C70.5666 24.0073 69.7746 24.198 68.8799 24.198C67.8532 24.198 66.9146 23.934 66.0639 23.406C65.2132 22.878 64.5386 22.1373 64.0399 21.184C63.5559 20.216 63.3139 19.1087 63.3139 17.862C63.3139 16.63 63.5559 15.5373 64.0399 14.584C64.5386 13.6307 65.2059 12.8973 66.0419 12.384C66.8926 11.8707 67.8386 11.614 68.8799 11.614ZM72.9059 17.906C72.9059 17.158 72.7592 16.52 72.4659 15.992C72.1726 15.4493 71.7766 15.0387 71.2779 14.76C70.7792 14.4667 70.2439 14.32 69.6719 14.32C69.0999 14.32 68.5719 14.4593 68.0879 14.738C67.6039 15.0167 67.2079 15.4273 66.8999 15.97C66.6066 16.498 66.4599 17.1287 66.4599 17.862C66.4599 18.5953 66.6066 19.2407 66.8999 19.798C67.2079 20.3407 67.6039 20.7587 68.0879 21.052C68.5866 21.3453 69.1146 21.492 69.6719 21.492C70.2439 21.492 70.7792 21.3527 71.2779 21.074C71.7766 20.7807 72.1726 20.37 72.4659 19.842C72.7592 19.2993 72.9059 18.654 72.9059 17.906ZM85.88 11.636C86.804 11.636 87.6254 11.8413 88.344 12.252C89.0627 12.648 89.62 13.242 90.016 14.034C90.4267 14.8113 90.632 15.75 90.632 16.85V24H87.552V17.268C87.552 16.3 87.31 15.5593 86.826 15.046C86.342 14.518 85.682 14.254 84.846 14.254C83.9954 14.254 83.3207 14.518 82.822 15.046C82.338 15.5593 82.096 16.3 82.096 17.268V24H79.016V7.72H82.096V13.33C82.492 12.802 83.02 12.3913 83.68 12.098C84.34 11.79 85.0734 11.636 85.88 11.636ZM97.147 14.342V20.238C97.147 20.6487 97.2423 20.9493 97.433 21.14C97.6383 21.316 97.9756 21.404 98.445 21.404H99.875V24H97.939C95.343 24 94.045 22.7387 94.045 20.216V14.342H92.593V11.812H94.045V8.798H97.147V11.812H99.875V14.342H97.147ZM110.412 11.13V14.98H115.582V17.422H110.412V21.492H116.242V24H107.332V8.622H116.242V11.13H110.412ZM118.249 17.862C118.249 16.63 118.491 15.5373 118.975 14.584C119.474 13.6307 120.141 12.8973 120.977 12.384C121.828 11.8707 122.774 11.614 123.815 11.614C124.725 11.614 125.517 11.7973 126.191 12.164C126.881 12.5307 127.431 12.9927 127.841 13.55V11.812H130.943V24H127.841V22.218C127.445 22.79 126.895 23.2667 126.191 23.648C125.502 24.0147 124.703 24.198 123.793 24.198C122.767 24.198 121.828 23.934 120.977 23.406C120.141 22.878 119.474 22.1373 118.975 21.184C118.491 20.216 118.249 19.1087 118.249 17.862ZM127.841 17.906C127.841 17.158 127.695 16.52 127.401 15.992C127.108 15.4493 126.712 15.0387 126.213 14.76C125.715 14.4667 125.179 14.32 124.607 14.32C124.035 14.32 123.507 14.4593 123.023 14.738C122.539 15.0167 122.143 15.4273 121.835 15.97C121.542 16.498 121.395 17.1287 121.395 17.862C121.395 18.5953 121.542 19.2407 121.835 19.798C122.143 20.3407 122.539 20.7587 123.023 21.052C123.522 21.3453 124.05 21.492 124.607 21.492C125.179 21.492 125.715 21.3527 126.213 21.074C126.712 20.7807 127.108 20.37 127.401 19.842C127.695 19.2993 127.841 18.654 127.841 17.906ZM138.616 24.198C137.618 24.198 136.724 24.022 135.932 23.67C135.14 23.3033 134.509 22.812 134.04 22.196C133.585 21.58 133.336 20.898 133.292 20.15H136.394C136.452 20.6193 136.68 21.008 137.076 21.316C137.486 21.624 137.992 21.778 138.594 21.778C139.18 21.778 139.635 21.6607 139.958 21.426C140.295 21.1913 140.464 20.8907 140.464 20.524C140.464 20.128 140.258 19.8347 139.848 19.644C139.452 19.4387 138.814 19.2187 137.934 18.984C137.024 18.764 136.276 18.5367 135.69 18.302C135.118 18.0673 134.619 17.708 134.194 17.224C133.783 16.74 133.578 16.0873 133.578 15.266C133.578 14.5913 133.768 13.9753 134.15 13.418C134.546 12.8607 135.103 12.4207 135.822 12.098C136.555 11.7753 137.413 11.614 138.396 11.614C139.848 11.614 141.006 11.9807 141.872 12.714C142.737 13.4327 143.214 14.408 143.302 15.64H140.354C140.31 15.156 140.104 14.7747 139.738 14.496C139.386 14.2027 138.909 14.056 138.308 14.056C137.75 14.056 137.318 14.1587 137.01 14.364C136.716 14.5693 136.57 14.8553 136.57 15.222C136.57 15.6327 136.775 15.948 137.186 16.168C137.596 16.3733 138.234 16.586 139.1 16.806C139.98 17.026 140.706 17.2533 141.278 17.488C141.85 17.7227 142.341 18.0893 142.752 18.588C143.177 19.072 143.397 19.7173 143.412 20.524C143.412 21.228 143.214 21.8587 142.818 22.416C142.436 22.9733 141.879 23.4133 141.146 23.736C140.427 24.044 139.584 24.198 138.616 24.198ZM157.27 17.642C157.27 18.082 157.241 18.478 157.182 18.83H148.272C148.345 19.71 148.653 20.3993 149.196 20.898C149.739 21.3967 150.406 21.646 151.198 21.646C152.342 21.646 153.156 21.1547 153.64 20.172H156.962C156.61 21.3453 155.935 22.3133 154.938 23.076C153.941 23.824 152.716 24.198 151.264 24.198C150.091 24.198 149.035 23.9413 148.096 23.428C147.172 22.9 146.446 22.1593 145.918 21.206C145.405 20.2527 145.148 19.1527 145.148 17.906C145.148 16.6447 145.405 15.5373 145.918 14.584C146.431 13.6307 147.15 12.8973 148.074 12.384C148.998 11.8707 150.061 11.614 151.264 11.614C152.423 11.614 153.457 11.8633 154.366 12.362C155.29 12.8607 156.001 13.572 156.5 14.496C157.013 15.4053 157.27 16.454 157.27 17.642ZM154.08 16.762C154.065 15.97 153.779 15.3393 153.222 14.87C152.665 14.386 151.983 14.144 151.176 14.144C150.413 14.144 149.768 14.3787 149.24 14.848C148.727 15.3027 148.411 15.9407 148.294 16.762H154.08Z" fill="black"/>
</svg>
